<mxfile host="Electron" modified="2024-04-15T16:17:05.380Z" agent="Mozilla/5.0 (Windows NT 10.0; Win64; x64) AppleWebKit/537.36 (KHTML, like Gecko) draw.io/24.2.5 Chrome/120.0.6099.109 Electron/28.1.0 Safari/537.36" etag="wZShT6tWIV2Ef9nvHPOW" version="24.2.5" type="device">
  <diagram id="C5RBs43oDa-KdzZeNtuy" name="Page-1">
    <mxGraphModel dx="2722" dy="1407" grid="1" gridSize="10" guides="1" tooltips="1" connect="1" arrows="1" fold="1" page="1" pageScale="1" pageWidth="827" pageHeight="1169" math="0" shadow="0">
      <root>
        <mxCell id="WIyWlLk6GJQsqaUBKTNV-0" />
        <mxCell id="WIyWlLk6GJQsqaUBKTNV-1" parent="WIyWlLk6GJQsqaUBKTNV-0" />
        <mxCell id="9pO-BKtLgeTeurF5Q9mF-15" style="edgeStyle=orthogonalEdgeStyle;rounded=0;orthogonalLoop=1;jettySize=auto;html=1;exitX=0;exitY=1;exitDx=0;exitDy=0;entryX=0.5;entryY=0;entryDx=0;entryDy=0;" edge="1" parent="WIyWlLk6GJQsqaUBKTNV-1" source="WIyWlLk6GJQsqaUBKTNV-3" target="9pO-BKtLgeTeurF5Q9mF-0">
          <mxGeometry relative="1" as="geometry" />
        </mxCell>
        <mxCell id="WIyWlLk6GJQsqaUBKTNV-3" value="main menu" style="rounded=1;whiteSpace=wrap;html=1;fontSize=12;glass=0;strokeWidth=1;shadow=0;" parent="WIyWlLk6GJQsqaUBKTNV-1" vertex="1">
          <mxGeometry x="330" y="120" width="120" height="40" as="geometry" />
        </mxCell>
        <mxCell id="9pO-BKtLgeTeurF5Q9mF-10" style="edgeStyle=orthogonalEdgeStyle;rounded=0;orthogonalLoop=1;jettySize=auto;html=1;exitX=1;exitY=0.5;exitDx=0;exitDy=0;entryX=0;entryY=0.5;entryDx=0;entryDy=0;" edge="1" parent="WIyWlLk6GJQsqaUBKTNV-1" source="WIyWlLk6GJQsqaUBKTNV-6" target="WIyWlLk6GJQsqaUBKTNV-7">
          <mxGeometry relative="1" as="geometry" />
        </mxCell>
        <mxCell id="9pO-BKtLgeTeurF5Q9mF-12" style="edgeStyle=orthogonalEdgeStyle;rounded=0;orthogonalLoop=1;jettySize=auto;html=1;exitX=0.5;exitY=1;exitDx=0;exitDy=0;entryX=0.5;entryY=0;entryDx=0;entryDy=0;" edge="1" parent="WIyWlLk6GJQsqaUBKTNV-1" source="WIyWlLk6GJQsqaUBKTNV-6" target="oyNKYAAfsACNKqSFx4lD-1">
          <mxGeometry relative="1" as="geometry" />
        </mxCell>
        <mxCell id="WIyWlLk6GJQsqaUBKTNV-6" value="Has admin credentials" style="rhombus;whiteSpace=wrap;html=1;shadow=0;fontFamily=Helvetica;fontSize=12;align=center;strokeWidth=1;spacing=6;spacingTop=-4;" parent="WIyWlLk6GJQsqaUBKTNV-1" vertex="1">
          <mxGeometry x="150" y="320" width="100" height="80" as="geometry" />
        </mxCell>
        <mxCell id="9pO-BKtLgeTeurF5Q9mF-14" style="edgeStyle=orthogonalEdgeStyle;rounded=0;orthogonalLoop=1;jettySize=auto;html=1;exitX=1;exitY=0;exitDx=0;exitDy=0;entryX=1;entryY=1;entryDx=0;entryDy=0;" edge="1" parent="WIyWlLk6GJQsqaUBKTNV-1" source="WIyWlLk6GJQsqaUBKTNV-7" target="WIyWlLk6GJQsqaUBKTNV-3">
          <mxGeometry relative="1" as="geometry">
            <Array as="points">
              <mxPoint x="450" y="340" />
            </Array>
          </mxGeometry>
        </mxCell>
        <mxCell id="WIyWlLk6GJQsqaUBKTNV-7" value="Display error message" style="rounded=1;whiteSpace=wrap;html=1;fontSize=12;glass=0;strokeWidth=1;shadow=0;" parent="WIyWlLk6GJQsqaUBKTNV-1" vertex="1">
          <mxGeometry x="300" y="340" width="120" height="40" as="geometry" />
        </mxCell>
        <mxCell id="9pO-BKtLgeTeurF5Q9mF-31" style="edgeStyle=orthogonalEdgeStyle;rounded=0;orthogonalLoop=1;jettySize=auto;html=1;exitX=0.5;exitY=1;exitDx=0;exitDy=0;entryX=0.5;entryY=0;entryDx=0;entryDy=0;" edge="1" parent="WIyWlLk6GJQsqaUBKTNV-1" source="oyNKYAAfsACNKqSFx4lD-1" target="9pO-BKtLgeTeurF5Q9mF-30">
          <mxGeometry relative="1" as="geometry" />
        </mxCell>
        <mxCell id="oyNKYAAfsACNKqSFx4lD-1" value="Give access to the system" style="rounded=1;whiteSpace=wrap;html=1;fontSize=12;glass=0;strokeWidth=1;shadow=0;" parent="WIyWlLk6GJQsqaUBKTNV-1" vertex="1">
          <mxGeometry x="140" y="430" width="120" height="40" as="geometry" />
        </mxCell>
        <mxCell id="9pO-BKtLgeTeurF5Q9mF-79" style="edgeStyle=orthogonalEdgeStyle;rounded=0;orthogonalLoop=1;jettySize=auto;html=1;exitX=1;exitY=0.5;exitDx=0;exitDy=0;entryX=1;entryY=0.5;entryDx=0;entryDy=0;" edge="1" parent="WIyWlLk6GJQsqaUBKTNV-1" source="oyNKYAAfsACNKqSFx4lD-6" target="oyNKYAAfsACNKqSFx4lD-13">
          <mxGeometry relative="1" as="geometry">
            <mxPoint x="1150" y="549.4705882352941" as="targetPoint" />
            <Array as="points">
              <mxPoint x="1190" y="550" />
              <mxPoint x="1190" y="830" />
            </Array>
          </mxGeometry>
        </mxCell>
        <mxCell id="9pO-BKtLgeTeurF5Q9mF-80" style="edgeStyle=orthogonalEdgeStyle;rounded=0;orthogonalLoop=1;jettySize=auto;html=1;exitX=1;exitY=0.75;exitDx=0;exitDy=0;entryX=0.5;entryY=0;entryDx=0;entryDy=0;" edge="1" parent="WIyWlLk6GJQsqaUBKTNV-1" source="oyNKYAAfsACNKqSFx4lD-6" target="9pO-BKtLgeTeurF5Q9mF-49">
          <mxGeometry relative="1" as="geometry" />
        </mxCell>
        <mxCell id="9pO-BKtLgeTeurF5Q9mF-81" style="edgeStyle=orthogonalEdgeStyle;rounded=0;orthogonalLoop=1;jettySize=auto;html=1;exitX=0.5;exitY=1;exitDx=0;exitDy=0;entryX=0.5;entryY=0;entryDx=0;entryDy=0;" edge="1" parent="WIyWlLk6GJQsqaUBKTNV-1" source="oyNKYAAfsACNKqSFx4lD-6" target="9pO-BKtLgeTeurF5Q9mF-47">
          <mxGeometry relative="1" as="geometry" />
        </mxCell>
        <mxCell id="9pO-BKtLgeTeurF5Q9mF-82" style="edgeStyle=orthogonalEdgeStyle;rounded=0;orthogonalLoop=1;jettySize=auto;html=1;exitX=0;exitY=0.75;exitDx=0;exitDy=0;entryX=0.5;entryY=0;entryDx=0;entryDy=0;" edge="1" parent="WIyWlLk6GJQsqaUBKTNV-1" source="oyNKYAAfsACNKqSFx4lD-6" target="9pO-BKtLgeTeurF5Q9mF-48">
          <mxGeometry relative="1" as="geometry" />
        </mxCell>
        <mxCell id="oyNKYAAfsACNKqSFx4lD-6" value="User menu:&lt;div&gt;-Borrow book&lt;/div&gt;&lt;div&gt;-Return book&lt;/div&gt;&lt;div&gt;-View books&lt;/div&gt;&lt;div&gt;-Return to Main Menu&lt;/div&gt;&lt;div&gt;&lt;br style=&quot;&quot;&gt;&lt;/div&gt;" style="rounded=1;whiteSpace=wrap;html=1;fontSize=12;glass=0;strokeWidth=1;shadow=0;align=left;" parent="WIyWlLk6GJQsqaUBKTNV-1" vertex="1">
          <mxGeometry x="775" y="500" width="120" height="100" as="geometry" />
        </mxCell>
        <mxCell id="9pO-BKtLgeTeurF5Q9mF-39" style="edgeStyle=orthogonalEdgeStyle;rounded=0;orthogonalLoop=1;jettySize=auto;html=1;exitX=0.5;exitY=1;exitDx=0;exitDy=0;entryX=0.5;entryY=0;entryDx=0;entryDy=0;" edge="1" parent="WIyWlLk6GJQsqaUBKTNV-1" source="oyNKYAAfsACNKqSFx4lD-13" target="9pO-BKtLgeTeurF5Q9mF-37">
          <mxGeometry relative="1" as="geometry" />
        </mxCell>
        <mxCell id="oyNKYAAfsACNKqSFx4lD-13" value="" style="ellipse;whiteSpace=wrap;html=1;aspect=fixed;" parent="WIyWlLk6GJQsqaUBKTNV-1" vertex="1">
          <mxGeometry x="740" y="820" width="20" height="20" as="geometry" />
        </mxCell>
        <mxCell id="oyNKYAAfsACNKqSFx4lD-20" style="edgeStyle=orthogonalEdgeStyle;rounded=0;orthogonalLoop=1;jettySize=auto;html=1;exitX=0.5;exitY=1;exitDx=0;exitDy=0;entryX=0.5;entryY=0;entryDx=0;entryDy=0;" parent="WIyWlLk6GJQsqaUBKTNV-1" source="oyNKYAAfsACNKqSFx4lD-19" target="WIyWlLk6GJQsqaUBKTNV-3" edge="1">
          <mxGeometry relative="1" as="geometry" />
        </mxCell>
        <mxCell id="oyNKYAAfsACNKqSFx4lD-19" value="Start" style="rounded=1;whiteSpace=wrap;html=1;fontSize=12;glass=0;strokeWidth=1;shadow=0;" parent="WIyWlLk6GJQsqaUBKTNV-1" vertex="1">
          <mxGeometry x="330" y="30" width="120" height="40" as="geometry" />
        </mxCell>
        <mxCell id="oyNKYAAfsACNKqSFx4lD-21" value="Yes&lt;div&gt;&lt;br&gt;&lt;/div&gt;" style="text;html=1;align=center;verticalAlign=middle;resizable=0;points=[];autosize=1;strokeColor=none;fillColor=none;" parent="WIyWlLk6GJQsqaUBKTNV-1" vertex="1">
          <mxGeometry x="150" y="390" width="40" height="40" as="geometry" />
        </mxCell>
        <mxCell id="oyNKYAAfsACNKqSFx4lD-49" value="" style="ellipse;html=1;shape=endState;fillColor=#000000;strokeColor=#ff0000;" parent="WIyWlLk6GJQsqaUBKTNV-1" vertex="1">
          <mxGeometry x="735" y="1000" width="30" height="30" as="geometry" />
        </mxCell>
        <mxCell id="oyNKYAAfsACNKqSFx4lD-51" style="edgeStyle=orthogonalEdgeStyle;rounded=0;orthogonalLoop=1;jettySize=auto;html=1;exitX=0;exitY=0.5;exitDx=0;exitDy=0;entryX=1;entryY=0.5;entryDx=0;entryDy=0;" parent="WIyWlLk6GJQsqaUBKTNV-1" source="oyNKYAAfsACNKqSFx4lD-50" target="oyNKYAAfsACNKqSFx4lD-19" edge="1">
          <mxGeometry relative="1" as="geometry" />
        </mxCell>
        <mxCell id="oyNKYAAfsACNKqSFx4lD-50" value="" style="ellipse;shape=doubleEllipse;html=1;dashed=0;whiteSpace=wrap;aspect=fixed;" parent="WIyWlLk6GJQsqaUBKTNV-1" vertex="1">
          <mxGeometry x="520" y="35" width="30" height="30" as="geometry" />
        </mxCell>
        <mxCell id="9pO-BKtLgeTeurF5Q9mF-7" style="edgeStyle=orthogonalEdgeStyle;rounded=0;orthogonalLoop=1;jettySize=auto;html=1;exitX=0;exitY=0.5;exitDx=0;exitDy=0;entryX=0.5;entryY=0;entryDx=0;entryDy=0;" edge="1" parent="WIyWlLk6GJQsqaUBKTNV-1" source="9pO-BKtLgeTeurF5Q9mF-0" target="WIyWlLk6GJQsqaUBKTNV-6">
          <mxGeometry relative="1" as="geometry" />
        </mxCell>
        <mxCell id="9pO-BKtLgeTeurF5Q9mF-16" style="edgeStyle=orthogonalEdgeStyle;rounded=0;orthogonalLoop=1;jettySize=auto;html=1;exitX=1;exitY=0.5;exitDx=0;exitDy=0;entryX=0.5;entryY=0;entryDx=0;entryDy=0;" edge="1" parent="WIyWlLk6GJQsqaUBKTNV-1" source="9pO-BKtLgeTeurF5Q9mF-0" target="9pO-BKtLgeTeurF5Q9mF-6">
          <mxGeometry relative="1" as="geometry">
            <mxPoint x="520" y="219.66666666666674" as="targetPoint" />
          </mxGeometry>
        </mxCell>
        <mxCell id="9pO-BKtLgeTeurF5Q9mF-0" value="Choose Admin or user" style="rounded=1;whiteSpace=wrap;html=1;fontSize=12;glass=0;strokeWidth=1;shadow=0;" vertex="1" parent="WIyWlLk6GJQsqaUBKTNV-1">
          <mxGeometry x="270" y="200" width="120" height="40" as="geometry" />
        </mxCell>
        <mxCell id="9pO-BKtLgeTeurF5Q9mF-5" style="edgeStyle=orthogonalEdgeStyle;rounded=0;orthogonalLoop=1;jettySize=auto;html=1;exitX=0.5;exitY=0;exitDx=0;exitDy=0;entryX=0.5;entryY=0;entryDx=0;entryDy=0;" edge="1" parent="WIyWlLk6GJQsqaUBKTNV-1" source="WIyWlLk6GJQsqaUBKTNV-6" target="WIyWlLk6GJQsqaUBKTNV-6">
          <mxGeometry relative="1" as="geometry" />
        </mxCell>
        <mxCell id="9pO-BKtLgeTeurF5Q9mF-6" value="Has usercredentials" style="rhombus;whiteSpace=wrap;html=1;shadow=0;fontFamily=Helvetica;fontSize=12;align=center;strokeWidth=1;spacing=6;spacingTop=-4;" vertex="1" parent="WIyWlLk6GJQsqaUBKTNV-1">
          <mxGeometry x="785" y="320" width="100" height="80" as="geometry" />
        </mxCell>
        <mxCell id="9pO-BKtLgeTeurF5Q9mF-8" value="&lt;div&gt;Chooses Admin&lt;div&gt;&lt;br&gt;&lt;/div&gt;&lt;/div&gt;" style="text;html=1;align=center;verticalAlign=middle;resizable=0;points=[];autosize=1;strokeColor=none;fillColor=none;" vertex="1" parent="WIyWlLk6GJQsqaUBKTNV-1">
          <mxGeometry x="165" y="190" width="110" height="40" as="geometry" />
        </mxCell>
        <mxCell id="9pO-BKtLgeTeurF5Q9mF-13" value="No" style="text;html=1;align=center;verticalAlign=middle;resizable=0;points=[];autosize=1;strokeColor=none;fillColor=none;" vertex="1" parent="WIyWlLk6GJQsqaUBKTNV-1">
          <mxGeometry x="250" y="338" width="40" height="30" as="geometry" />
        </mxCell>
        <mxCell id="9pO-BKtLgeTeurF5Q9mF-18" style="edgeStyle=orthogonalEdgeStyle;rounded=0;orthogonalLoop=1;jettySize=auto;html=1;exitX=0.5;exitY=1;exitDx=0;exitDy=0;entryX=0.5;entryY=0;entryDx=0;entryDy=0;" edge="1" parent="WIyWlLk6GJQsqaUBKTNV-1" target="9pO-BKtLgeTeurF5Q9mF-21">
          <mxGeometry relative="1" as="geometry">
            <mxPoint x="835" y="400" as="sourcePoint" />
          </mxGeometry>
        </mxCell>
        <mxCell id="9pO-BKtLgeTeurF5Q9mF-27" style="edgeStyle=orthogonalEdgeStyle;rounded=0;orthogonalLoop=1;jettySize=auto;html=1;exitX=0.5;exitY=0;exitDx=0;exitDy=0;entryX=1;entryY=0.5;entryDx=0;entryDy=0;" edge="1" parent="WIyWlLk6GJQsqaUBKTNV-1" source="9pO-BKtLgeTeurF5Q9mF-20" target="WIyWlLk6GJQsqaUBKTNV-3">
          <mxGeometry relative="1" as="geometry" />
        </mxCell>
        <mxCell id="9pO-BKtLgeTeurF5Q9mF-20" value="Display error message" style="rounded=1;whiteSpace=wrap;html=1;fontSize=12;glass=0;strokeWidth=1;shadow=0;" vertex="1" parent="WIyWlLk6GJQsqaUBKTNV-1">
          <mxGeometry x="935" y="340" width="120" height="40" as="geometry" />
        </mxCell>
        <mxCell id="9pO-BKtLgeTeurF5Q9mF-32" style="edgeStyle=orthogonalEdgeStyle;rounded=0;orthogonalLoop=1;jettySize=auto;html=1;exitX=0.5;exitY=1;exitDx=0;exitDy=0;entryX=0.5;entryY=0;entryDx=0;entryDy=0;" edge="1" parent="WIyWlLk6GJQsqaUBKTNV-1" source="9pO-BKtLgeTeurF5Q9mF-21" target="oyNKYAAfsACNKqSFx4lD-6">
          <mxGeometry relative="1" as="geometry" />
        </mxCell>
        <mxCell id="9pO-BKtLgeTeurF5Q9mF-21" value="Give access to the system" style="rounded=1;whiteSpace=wrap;html=1;fontSize=12;glass=0;strokeWidth=1;shadow=0;" vertex="1" parent="WIyWlLk6GJQsqaUBKTNV-1">
          <mxGeometry x="775" y="430" width="120" height="40" as="geometry" />
        </mxCell>
        <mxCell id="9pO-BKtLgeTeurF5Q9mF-22" value="Yes&lt;div&gt;&lt;br&gt;&lt;/div&gt;" style="text;html=1;align=center;verticalAlign=middle;resizable=0;points=[];autosize=1;strokeColor=none;fillColor=none;" vertex="1" parent="WIyWlLk6GJQsqaUBKTNV-1">
          <mxGeometry x="785" y="390" width="40" height="40" as="geometry" />
        </mxCell>
        <mxCell id="9pO-BKtLgeTeurF5Q9mF-23" style="edgeStyle=orthogonalEdgeStyle;rounded=0;orthogonalLoop=1;jettySize=auto;html=1;exitX=0.5;exitY=0;exitDx=0;exitDy=0;entryX=0.5;entryY=0;entryDx=0;entryDy=0;" edge="1" parent="WIyWlLk6GJQsqaUBKTNV-1">
          <mxGeometry relative="1" as="geometry">
            <mxPoint x="955" y="320" as="sourcePoint" />
            <mxPoint x="955" y="320" as="targetPoint" />
          </mxGeometry>
        </mxCell>
        <mxCell id="9pO-BKtLgeTeurF5Q9mF-24" value="No" style="text;html=1;align=center;verticalAlign=middle;resizable=0;points=[];autosize=1;strokeColor=none;fillColor=none;" vertex="1" parent="WIyWlLk6GJQsqaUBKTNV-1">
          <mxGeometry x="885" y="338" width="40" height="30" as="geometry" />
        </mxCell>
        <mxCell id="9pO-BKtLgeTeurF5Q9mF-26" style="edgeStyle=orthogonalEdgeStyle;rounded=0;orthogonalLoop=1;jettySize=auto;html=1;exitX=1;exitY=0.5;exitDx=0;exitDy=0;entryX=-0.029;entryY=0.476;entryDx=0;entryDy=0;entryPerimeter=0;" edge="1" parent="WIyWlLk6GJQsqaUBKTNV-1" source="9pO-BKtLgeTeurF5Q9mF-6" target="9pO-BKtLgeTeurF5Q9mF-20">
          <mxGeometry relative="1" as="geometry" />
        </mxCell>
        <mxCell id="9pO-BKtLgeTeurF5Q9mF-28" value="Chooses User" style="text;whiteSpace=wrap;html=1;" vertex="1" parent="WIyWlLk6GJQsqaUBKTNV-1">
          <mxGeometry x="450" y="190" width="110" height="80" as="geometry" />
        </mxCell>
        <mxCell id="9pO-BKtLgeTeurF5Q9mF-71" style="edgeStyle=orthogonalEdgeStyle;rounded=0;orthogonalLoop=1;jettySize=auto;html=1;exitX=0;exitY=0.5;exitDx=0;exitDy=0;entryX=0.5;entryY=0;entryDx=0;entryDy=0;" edge="1" parent="WIyWlLk6GJQsqaUBKTNV-1" source="9pO-BKtLgeTeurF5Q9mF-30" target="9pO-BKtLgeTeurF5Q9mF-42">
          <mxGeometry relative="1" as="geometry" />
        </mxCell>
        <mxCell id="9pO-BKtLgeTeurF5Q9mF-72" style="edgeStyle=orthogonalEdgeStyle;rounded=0;orthogonalLoop=1;jettySize=auto;html=1;exitX=1;exitY=0.5;exitDx=0;exitDy=0;entryX=0.5;entryY=0;entryDx=0;entryDy=0;" edge="1" parent="WIyWlLk6GJQsqaUBKTNV-1" source="9pO-BKtLgeTeurF5Q9mF-30" target="9pO-BKtLgeTeurF5Q9mF-43">
          <mxGeometry relative="1" as="geometry" />
        </mxCell>
        <mxCell id="9pO-BKtLgeTeurF5Q9mF-78" style="edgeStyle=orthogonalEdgeStyle;rounded=0;orthogonalLoop=1;jettySize=auto;html=1;exitX=1;exitY=0.25;exitDx=0;exitDy=0;" edge="1" parent="WIyWlLk6GJQsqaUBKTNV-1" source="9pO-BKtLgeTeurF5Q9mF-30">
          <mxGeometry relative="1" as="geometry">
            <mxPoint x="540" y="830" as="targetPoint" />
          </mxGeometry>
        </mxCell>
        <mxCell id="9pO-BKtLgeTeurF5Q9mF-30" value="Admin menu:&lt;div&gt;-Add book&lt;/div&gt;&lt;div&gt;-Add member&lt;/div&gt;&lt;div&gt;-view books&lt;/div&gt;&lt;div&gt;-return to Main Menu&lt;/div&gt;&lt;div&gt;&lt;br&gt;&lt;/div&gt;" style="rounded=1;whiteSpace=wrap;html=1;fontSize=12;glass=0;strokeWidth=1;shadow=0;align=left;" vertex="1" parent="WIyWlLk6GJQsqaUBKTNV-1">
          <mxGeometry x="140" y="500" width="120" height="100" as="geometry" />
        </mxCell>
        <mxCell id="9pO-BKtLgeTeurF5Q9mF-40" style="edgeStyle=orthogonalEdgeStyle;rounded=0;orthogonalLoop=1;jettySize=auto;html=1;exitX=0.5;exitY=1;exitDx=0;exitDy=0;entryX=0.5;entryY=0;entryDx=0;entryDy=0;" edge="1" parent="WIyWlLk6GJQsqaUBKTNV-1" source="9pO-BKtLgeTeurF5Q9mF-37" target="9pO-BKtLgeTeurF5Q9mF-38">
          <mxGeometry relative="1" as="geometry" />
        </mxCell>
        <mxCell id="9pO-BKtLgeTeurF5Q9mF-37" value="Back to Main Menu" style="rounded=1;whiteSpace=wrap;html=1;fontSize=12;glass=0;strokeWidth=1;shadow=0;" vertex="1" parent="WIyWlLk6GJQsqaUBKTNV-1">
          <mxGeometry x="690" y="860" width="120" height="40" as="geometry" />
        </mxCell>
        <mxCell id="9pO-BKtLgeTeurF5Q9mF-41" style="edgeStyle=orthogonalEdgeStyle;rounded=0;orthogonalLoop=1;jettySize=auto;html=1;exitX=0.5;exitY=1;exitDx=0;exitDy=0;entryX=0.5;entryY=0;entryDx=0;entryDy=0;" edge="1" parent="WIyWlLk6GJQsqaUBKTNV-1" source="9pO-BKtLgeTeurF5Q9mF-38" target="oyNKYAAfsACNKqSFx4lD-49">
          <mxGeometry relative="1" as="geometry" />
        </mxCell>
        <mxCell id="9pO-BKtLgeTeurF5Q9mF-38" value="Exit chosen" style="rounded=1;whiteSpace=wrap;html=1;fontSize=12;glass=0;strokeWidth=1;shadow=0;" vertex="1" parent="WIyWlLk6GJQsqaUBKTNV-1">
          <mxGeometry x="690" y="930" width="120" height="40" as="geometry" />
        </mxCell>
        <mxCell id="9pO-BKtLgeTeurF5Q9mF-67" style="edgeStyle=orthogonalEdgeStyle;rounded=0;orthogonalLoop=1;jettySize=auto;html=1;exitX=0.5;exitY=1;exitDx=0;exitDy=0;entryX=0.5;entryY=0;entryDx=0;entryDy=0;" edge="1" parent="WIyWlLk6GJQsqaUBKTNV-1" source="9pO-BKtLgeTeurF5Q9mF-42" target="9pO-BKtLgeTeurF5Q9mF-51">
          <mxGeometry relative="1" as="geometry" />
        </mxCell>
        <mxCell id="9pO-BKtLgeTeurF5Q9mF-42" value="Add Book" style="rounded=1;whiteSpace=wrap;html=1;fontSize=12;glass=0;strokeWidth=1;shadow=0;" vertex="1" parent="WIyWlLk6GJQsqaUBKTNV-1">
          <mxGeometry x="10" y="620" width="120" height="40" as="geometry" />
        </mxCell>
        <mxCell id="9pO-BKtLgeTeurF5Q9mF-74" style="edgeStyle=orthogonalEdgeStyle;rounded=0;orthogonalLoop=1;jettySize=auto;html=1;exitX=0.5;exitY=1;exitDx=0;exitDy=0;entryX=0.5;entryY=0;entryDx=0;entryDy=0;" edge="1" parent="WIyWlLk6GJQsqaUBKTNV-1" source="9pO-BKtLgeTeurF5Q9mF-43" target="9pO-BKtLgeTeurF5Q9mF-52">
          <mxGeometry relative="1" as="geometry" />
        </mxCell>
        <mxCell id="9pO-BKtLgeTeurF5Q9mF-43" value="View all books" style="rounded=1;whiteSpace=wrap;html=1;fontSize=12;glass=0;strokeWidth=1;shadow=0;" vertex="1" parent="WIyWlLk6GJQsqaUBKTNV-1">
          <mxGeometry x="290" y="620" width="120" height="40" as="geometry" />
        </mxCell>
        <mxCell id="9pO-BKtLgeTeurF5Q9mF-70" style="edgeStyle=orthogonalEdgeStyle;rounded=0;orthogonalLoop=1;jettySize=auto;html=1;exitX=0.5;exitY=1;exitDx=0;exitDy=0;entryX=0.5;entryY=0;entryDx=0;entryDy=0;" edge="1" parent="WIyWlLk6GJQsqaUBKTNV-1" source="9pO-BKtLgeTeurF5Q9mF-44" target="9pO-BKtLgeTeurF5Q9mF-53">
          <mxGeometry relative="1" as="geometry" />
        </mxCell>
        <mxCell id="9pO-BKtLgeTeurF5Q9mF-44" value="Add Member" style="rounded=1;whiteSpace=wrap;html=1;fontSize=12;glass=0;strokeWidth=1;shadow=0;" vertex="1" parent="WIyWlLk6GJQsqaUBKTNV-1">
          <mxGeometry x="150" y="620" width="120" height="40" as="geometry" />
        </mxCell>
        <mxCell id="9pO-BKtLgeTeurF5Q9mF-83" style="edgeStyle=orthogonalEdgeStyle;rounded=0;orthogonalLoop=1;jettySize=auto;html=1;exitX=0.5;exitY=1;exitDx=0;exitDy=0;entryX=0.5;entryY=0;entryDx=0;entryDy=0;" edge="1" parent="WIyWlLk6GJQsqaUBKTNV-1" source="9pO-BKtLgeTeurF5Q9mF-47" target="9pO-BKtLgeTeurF5Q9mF-75">
          <mxGeometry relative="1" as="geometry" />
        </mxCell>
        <mxCell id="9pO-BKtLgeTeurF5Q9mF-47" value="Return book" style="rounded=1;whiteSpace=wrap;html=1;fontSize=12;glass=0;strokeWidth=1;shadow=0;" vertex="1" parent="WIyWlLk6GJQsqaUBKTNV-1">
          <mxGeometry x="780" y="620" width="120" height="40" as="geometry" />
        </mxCell>
        <mxCell id="9pO-BKtLgeTeurF5Q9mF-85" style="edgeStyle=orthogonalEdgeStyle;rounded=0;orthogonalLoop=1;jettySize=auto;html=1;exitX=0.5;exitY=1;exitDx=0;exitDy=0;entryX=0.5;entryY=0;entryDx=0;entryDy=0;" edge="1" parent="WIyWlLk6GJQsqaUBKTNV-1" source="9pO-BKtLgeTeurF5Q9mF-48" target="9pO-BKtLgeTeurF5Q9mF-76">
          <mxGeometry relative="1" as="geometry" />
        </mxCell>
        <mxCell id="9pO-BKtLgeTeurF5Q9mF-48" value="Borrow book" style="rounded=1;whiteSpace=wrap;html=1;fontSize=12;glass=0;strokeWidth=1;shadow=0;" vertex="1" parent="WIyWlLk6GJQsqaUBKTNV-1">
          <mxGeometry x="640" y="620" width="120" height="40" as="geometry" />
        </mxCell>
        <mxCell id="9pO-BKtLgeTeurF5Q9mF-84" style="edgeStyle=orthogonalEdgeStyle;rounded=0;orthogonalLoop=1;jettySize=auto;html=1;exitX=0.5;exitY=1;exitDx=0;exitDy=0;entryX=0.5;entryY=0;entryDx=0;entryDy=0;" edge="1" parent="WIyWlLk6GJQsqaUBKTNV-1" source="9pO-BKtLgeTeurF5Q9mF-49" target="9pO-BKtLgeTeurF5Q9mF-77">
          <mxGeometry relative="1" as="geometry" />
        </mxCell>
        <mxCell id="9pO-BKtLgeTeurF5Q9mF-49" value="View books" style="rounded=1;whiteSpace=wrap;html=1;fontSize=12;glass=0;strokeWidth=1;shadow=0;" vertex="1" parent="WIyWlLk6GJQsqaUBKTNV-1">
          <mxGeometry x="910" y="620" width="120" height="40" as="geometry" />
        </mxCell>
        <mxCell id="9pO-BKtLgeTeurF5Q9mF-68" style="edgeStyle=orthogonalEdgeStyle;rounded=0;orthogonalLoop=1;jettySize=auto;html=1;exitX=0.5;exitY=1;exitDx=0;exitDy=0;entryX=0.5;entryY=0;entryDx=0;entryDy=0;" edge="1" parent="WIyWlLk6GJQsqaUBKTNV-1" source="9pO-BKtLgeTeurF5Q9mF-51" target="9pO-BKtLgeTeurF5Q9mF-55">
          <mxGeometry relative="1" as="geometry" />
        </mxCell>
        <mxCell id="9pO-BKtLgeTeurF5Q9mF-51" value="Give book details" style="rounded=1;whiteSpace=wrap;html=1;fontSize=12;glass=0;strokeWidth=1;shadow=0;" vertex="1" parent="WIyWlLk6GJQsqaUBKTNV-1">
          <mxGeometry x="10" y="690" width="120" height="40" as="geometry" />
        </mxCell>
        <mxCell id="9pO-BKtLgeTeurF5Q9mF-65" style="edgeStyle=orthogonalEdgeStyle;rounded=0;orthogonalLoop=1;jettySize=auto;html=1;exitX=0.5;exitY=1;exitDx=0;exitDy=0;" edge="1" parent="WIyWlLk6GJQsqaUBKTNV-1" source="9pO-BKtLgeTeurF5Q9mF-52">
          <mxGeometry relative="1" as="geometry">
            <mxPoint x="350" y="830" as="targetPoint" />
          </mxGeometry>
        </mxCell>
        <mxCell id="9pO-BKtLgeTeurF5Q9mF-52" value="Display all books" style="rounded=1;whiteSpace=wrap;html=1;fontSize=12;glass=0;strokeWidth=1;shadow=0;" vertex="1" parent="WIyWlLk6GJQsqaUBKTNV-1">
          <mxGeometry x="290" y="690" width="120" height="40" as="geometry" />
        </mxCell>
        <mxCell id="9pO-BKtLgeTeurF5Q9mF-69" style="edgeStyle=orthogonalEdgeStyle;rounded=0;orthogonalLoop=1;jettySize=auto;html=1;exitX=0.5;exitY=1;exitDx=0;exitDy=0;entryX=0.5;entryY=0;entryDx=0;entryDy=0;" edge="1" parent="WIyWlLk6GJQsqaUBKTNV-1" source="9pO-BKtLgeTeurF5Q9mF-53" target="9pO-BKtLgeTeurF5Q9mF-57">
          <mxGeometry relative="1" as="geometry" />
        </mxCell>
        <mxCell id="9pO-BKtLgeTeurF5Q9mF-53" value="Give member details" style="rounded=1;whiteSpace=wrap;html=1;fontSize=12;glass=0;strokeWidth=1;shadow=0;" vertex="1" parent="WIyWlLk6GJQsqaUBKTNV-1">
          <mxGeometry x="150" y="690" width="120" height="40" as="geometry" />
        </mxCell>
        <mxCell id="9pO-BKtLgeTeurF5Q9mF-63" style="edgeStyle=orthogonalEdgeStyle;rounded=0;orthogonalLoop=1;jettySize=auto;html=1;exitX=0.5;exitY=1;exitDx=0;exitDy=0;entryX=0;entryY=0.5;entryDx=0;entryDy=0;" edge="1" parent="WIyWlLk6GJQsqaUBKTNV-1" source="9pO-BKtLgeTeurF5Q9mF-55" target="oyNKYAAfsACNKqSFx4lD-13">
          <mxGeometry relative="1" as="geometry" />
        </mxCell>
        <mxCell id="9pO-BKtLgeTeurF5Q9mF-55" value="Add book to DB" style="rounded=1;whiteSpace=wrap;html=1;fontSize=12;glass=0;strokeWidth=1;shadow=0;" vertex="1" parent="WIyWlLk6GJQsqaUBKTNV-1">
          <mxGeometry x="10" y="760" width="120" height="40" as="geometry" />
        </mxCell>
        <mxCell id="9pO-BKtLgeTeurF5Q9mF-66" style="edgeStyle=orthogonalEdgeStyle;rounded=0;orthogonalLoop=1;jettySize=auto;html=1;exitX=0.5;exitY=1;exitDx=0;exitDy=0;" edge="1" parent="WIyWlLk6GJQsqaUBKTNV-1" source="9pO-BKtLgeTeurF5Q9mF-57">
          <mxGeometry relative="1" as="geometry">
            <mxPoint x="210" y="830" as="targetPoint" />
          </mxGeometry>
        </mxCell>
        <mxCell id="9pO-BKtLgeTeurF5Q9mF-57" value="Add member to DB" style="rounded=1;whiteSpace=wrap;html=1;fontSize=12;glass=0;strokeWidth=1;shadow=0;" vertex="1" parent="WIyWlLk6GJQsqaUBKTNV-1">
          <mxGeometry x="150" y="760" width="120" height="40" as="geometry" />
        </mxCell>
        <mxCell id="9pO-BKtLgeTeurF5Q9mF-73" style="edgeStyle=orthogonalEdgeStyle;rounded=0;orthogonalLoop=1;jettySize=auto;html=1;exitX=0.5;exitY=1;exitDx=0;exitDy=0;entryX=0.429;entryY=-0.087;entryDx=0;entryDy=0;entryPerimeter=0;" edge="1" parent="WIyWlLk6GJQsqaUBKTNV-1" source="9pO-BKtLgeTeurF5Q9mF-30" target="9pO-BKtLgeTeurF5Q9mF-44">
          <mxGeometry relative="1" as="geometry" />
        </mxCell>
        <mxCell id="9pO-BKtLgeTeurF5Q9mF-87" style="edgeStyle=orthogonalEdgeStyle;rounded=0;orthogonalLoop=1;jettySize=auto;html=1;exitX=0.5;exitY=1;exitDx=0;exitDy=0;" edge="1" parent="WIyWlLk6GJQsqaUBKTNV-1" source="9pO-BKtLgeTeurF5Q9mF-75">
          <mxGeometry relative="1" as="geometry">
            <mxPoint x="840.3529411764707" y="830" as="targetPoint" />
          </mxGeometry>
        </mxCell>
        <mxCell id="9pO-BKtLgeTeurF5Q9mF-75" value="Give book info to be returned" style="rounded=1;whiteSpace=wrap;html=1;fontSize=12;glass=0;strokeWidth=1;shadow=0;" vertex="1" parent="WIyWlLk6GJQsqaUBKTNV-1">
          <mxGeometry x="780" y="690" width="120" height="40" as="geometry" />
        </mxCell>
        <mxCell id="9pO-BKtLgeTeurF5Q9mF-88" style="edgeStyle=orthogonalEdgeStyle;rounded=0;orthogonalLoop=1;jettySize=auto;html=1;exitX=0.5;exitY=1;exitDx=0;exitDy=0;" edge="1" parent="WIyWlLk6GJQsqaUBKTNV-1" source="9pO-BKtLgeTeurF5Q9mF-76">
          <mxGeometry relative="1" as="geometry">
            <mxPoint x="790" y="830" as="targetPoint" />
          </mxGeometry>
        </mxCell>
        <mxCell id="9pO-BKtLgeTeurF5Q9mF-76" value="Book borrowed" style="rounded=1;whiteSpace=wrap;html=1;fontSize=12;glass=0;strokeWidth=1;shadow=0;" vertex="1" parent="WIyWlLk6GJQsqaUBKTNV-1">
          <mxGeometry x="640" y="690" width="120" height="40" as="geometry" />
        </mxCell>
        <mxCell id="9pO-BKtLgeTeurF5Q9mF-86" style="edgeStyle=orthogonalEdgeStyle;rounded=0;orthogonalLoop=1;jettySize=auto;html=1;exitX=0.5;exitY=1;exitDx=0;exitDy=0;" edge="1" parent="WIyWlLk6GJQsqaUBKTNV-1" source="9pO-BKtLgeTeurF5Q9mF-77">
          <mxGeometry relative="1" as="geometry">
            <mxPoint x="969.7647058823532" y="830" as="targetPoint" />
          </mxGeometry>
        </mxCell>
        <mxCell id="9pO-BKtLgeTeurF5Q9mF-77" value="Display all books" style="rounded=1;whiteSpace=wrap;html=1;fontSize=12;glass=0;strokeWidth=1;shadow=0;" vertex="1" parent="WIyWlLk6GJQsqaUBKTNV-1">
          <mxGeometry x="910" y="690" width="120" height="40" as="geometry" />
        </mxCell>
      </root>
    </mxGraphModel>
  </diagram>
</mxfile>
